# xmcd
#
# Track frame offsets: 
#        150
#        33891
#        48050
#        67087
#        95034
#        115762
#        136676
#        156657
#        173431
#        197047
#        222275
#        251788
#        284708
#        307297
#        330529
#        350199
#        366438
#
# Disc length: 5139 seconds
#
# Revision: 0
# Processed by: cddbd v1.5.2PL0 Copyright (c) Steve Scherf et al.
# Submitted via: ExactAudioCopyFreeDBPlugin 1.0
#
DISCID=15141111
DTITLE=Eagles - Hell Freezes Over
DYEAR=2008
DGENRE=Country Rock
TTITLE0=Hotel California
TTITLE1=Tequila Sunrise
TTITLE2=Help Me Through The Night
TTITLE3=The Heart Of The Matter
TTITLE4=Love Will Keep Us Alive
TTITLE5=Learn To Be Still
TTITLE6=Pretty Maids All In A Row
TTITLE7=The Girl From Yesterday
TTITLE8=Wasted Time
TTITLE9=I Can't Tell You Why
TTITLE10=New York Minute
TTITLE11=The Last Resort
TTITLE12=Take It Easy
TTITLE13=Life In The Fast Lane
TTITLE14=In The City
TTITLE15=Get Over It
TTITLE16=Desperado
EXTD=
EXTT0=
EXTT1=
EXTT2=
EXTT3=
EXTT4=
EXTT5=
EXTT6=
EXTT7=
EXTT8=
EXTT9=
EXTT10=
EXTT11=
EXTT12=
EXTT13=
EXTT14=
EXTT15=
EXTT16=
PLAYORDER=
